<svg xmlns="http://www.w3.org/2000/svg" viewBox="0 0 157.42 17.82">
  <title>scroll</title>
  <g id="Layer_2" data-name="Layer 2">
    <g id="Layer_1-2" data-name="Layer 1">
      <g style="opacity: 0.5">
        <path d="M9.7,4.11,7.77,5.25A3.27,3.27,0,0,0,6.74,4,2.48,2.48,0,0,0,5.42,3.7a2.38,2.38,0,0,0-1.64.56,1.73,1.73,0,0,0-.65,1.39q0,1.15,1.71,1.86l1.58.64a6.65,6.65,0,0,1,2.8,1.9,4.22,4.22,0,0,1,.89,2.74,4.79,4.79,0,0,1-1.45,3.59A5,5,0,0,1,5,17.82a4.89,4.89,0,0,1-3.4-1.22A5.65,5.65,0,0,1,0,13.18l2.41-.53A4.19,4.19,0,0,0,3,14.57a2.49,2.49,0,0,0,2.15,1A2.49,2.49,0,0,0,7,14.84,2.55,2.55,0,0,0,7.71,13a2.55,2.55,0,0,0-.13-.84,1.94,1.94,0,0,0-.39-.7,3.26,3.26,0,0,0-.7-.61,7.54,7.54,0,0,0-1-.53L3.94,9.63C1.78,8.72.71,7.39.71,5.63a3.79,3.79,0,0,1,1.35-3A4.9,4.9,0,0,1,5.44,1.45,4.72,4.72,0,0,1,9.7,4.11Z" style="fill: blue"/>
        <path d="M20.29,8v3.05a5.57,5.57,0,0,0-1.41-1.31,2.71,2.71,0,0,0-1.44-.37,2.83,2.83,0,0,0-2.16.91,3.17,3.17,0,0,0-.86,2.27,3.26,3.26,0,0,0,.83,2.3,2.79,2.79,0,0,0,2.14.9,2.93,2.93,0,0,0,1.46-.36,5.79,5.79,0,0,0,1.44-1.34v3a6.12,6.12,0,0,1-2.8.73,5.33,5.33,0,0,1-3.86-1.5,5,5,0,0,1-1.56-3.72,5,5,0,0,1,1.58-3.76A5.29,5.29,0,0,1,17.51,7.3,5.78,5.78,0,0,1,20.29,8Z" style="fill: blue"/>
        <path d="M22.51,7.58h2.3v.89a4.3,4.3,0,0,1,1.13-.91,2.57,2.57,0,0,1,1.18-.26,3.67,3.67,0,0,1,1.9.6L28,10a2.22,2.22,0,0,0-1.28-.47c-1.25,0-1.88,1-1.88,2.84v5.16h-2.3Z" style="fill: blue"/>
        <path d="M29.69,12.48a4.92,4.92,0,0,1,1.54-3.66,5.42,5.42,0,0,1,7.54,0,5.05,5.05,0,0,1,1.53,3.73,5,5,0,0,1-1.54,3.75A5.3,5.3,0,0,1,35,17.82a5.21,5.21,0,0,1-5.26-5.34Zm2.35,0a3.35,3.35,0,0,0,.79,2.36,3.09,3.09,0,0,0,4.31,0A3.24,3.24,0,0,0,38,12.58a3.25,3.25,0,0,0-.81-2.32,3.05,3.05,0,0,0-4.29,0A3.2,3.2,0,0,0,32,12.52Z" style="fill: blue"/>
        <path d="M45,.28V17.53h-2.3V.28Z" style="fill: blue"/>
        <path d="M50.24.28V17.53h-2.3V.28Z" style="fill: blue"/>
        <path d="M62,9.72v7.81H59.68V9.72h-.82V7.58h.82V3.74a4.23,4.23,0,0,1,.65-2.66A3.21,3.21,0,0,1,63,0a4.45,4.45,0,0,1,1.54.36V2.71l-.24-.13A2.84,2.84,0,0,0,63,2.21a.82.82,0,0,0-.83.44A4.25,4.25,0,0,0,62,4.3V7.58h2.5V9.72Z" style="fill: blue"/>
        <path d="M65.6,12.48a4.93,4.93,0,0,1,1.55-3.66,5.41,5.41,0,0,1,7.53,0,5,5,0,0,1,1.54,3.73,5,5,0,0,1-1.55,3.75,5.27,5.27,0,0,1-3.81,1.51,5.08,5.08,0,0,1-3.75-1.54A5.16,5.16,0,0,1,65.6,12.48Zm2.35,0a3.36,3.36,0,0,0,.8,2.36,2.78,2.78,0,0,0,2.15.88,2.81,2.81,0,0,0,2.16-.87,3.24,3.24,0,0,0,.81-2.31,3.25,3.25,0,0,0-.81-2.32,2.8,2.8,0,0,0-2.16-.88,2.76,2.76,0,0,0-2.13.88A3.16,3.16,0,0,0,68,12.52Z" style="fill: blue"/>
        <path d="M78.65,7.58H81v.89a4.28,4.28,0,0,1,1.12-.91,2.57,2.57,0,0,1,1.18-.26,3.73,3.73,0,0,1,1.91.6L84.1,10a2.2,2.2,0,0,0-1.27-.47c-1.26,0-1.88,1-1.88,2.84v5.16h-2.3Z" style="fill: blue"/>
        <path d="M92.93,7.58h2.3V8.5a4.8,4.8,0,0,1,1.13-.94,2.77,2.77,0,0,1,1.26-.26,3,3,0,0,1,2.66,1.47,3.47,3.47,0,0,1,2.94-1.47q3.36,0,3.36,4.08v6.15h-2.31V12a4.29,4.29,0,0,0-.35-2,1.26,1.26,0,0,0-1.17-.6,1.51,1.51,0,0,0-1.39.71,4.61,4.61,0,0,0-.43,2.3v5.14H98.62V12c0-1.77-.51-2.65-1.53-2.65a1.55,1.55,0,0,0-1.42.72,4.63,4.63,0,0,0-.44,2.29v5.14h-2.3Z" style="fill: blue"/>
        <path d="M109,12.48a4.92,4.92,0,0,1,1.54-3.66,5.42,5.42,0,0,1,7.54,0,5.05,5.05,0,0,1,1.53,3.73,5,5,0,0,1-1.54,3.75,5.3,5.3,0,0,1-3.81,1.51A5.21,5.21,0,0,1,109,12.48Zm2.35,0a3.35,3.35,0,0,0,.79,2.36,2.81,2.81,0,0,0,2.16.88,2.77,2.77,0,0,0,2.15-.87,3.24,3.24,0,0,0,.81-2.31,3.25,3.25,0,0,0-.81-2.32,3.05,3.05,0,0,0-4.29,0A3.2,3.2,0,0,0,111.36,12.52Z" style="fill: blue"/>
        <path d="M122.05,7.58h2.3v.89a4.3,4.3,0,0,1,1.13-.91,2.54,2.54,0,0,1,1.18-.26,3.67,3.67,0,0,1,1.9.6l-1,2.1a2.22,2.22,0,0,0-1.28-.47c-1.25,0-1.88,1-1.88,2.84v5.16h-2.3Z" style="fill: blue"/>
        <path d="M138.8,13.1h-7.13a3,3,0,0,0,.79,2,2.46,2.46,0,0,0,1.81.71,2.3,2.3,0,0,0,1.42-.41A5.64,5.64,0,0,0,137,13.84l1.94,1.08a7.88,7.88,0,0,1-.95,1.32,5.56,5.56,0,0,1-1.07.9,4.63,4.63,0,0,1-1.24.51,5.92,5.92,0,0,1-1.44.17,4.67,4.67,0,0,1-3.58-1.44,5.35,5.35,0,0,1-1.35-3.82,5.54,5.54,0,0,1,1.31-3.82,4.53,4.53,0,0,1,3.5-1.44,4.48,4.48,0,0,1,3.47,1.4,5.53,5.53,0,0,1,1.27,3.85Zm-2.36-1.88a2.2,2.2,0,0,0-2.32-1.84,2.56,2.56,0,0,0-.79.12,2.3,2.3,0,0,0-.67.37,2.36,2.36,0,0,0-.51.58,2.33,2.33,0,0,0-.33.77Z" style="fill: blue"/>
        <path d="M141.67,16.38a1.38,1.38,0,0,1,.41-1,1.44,1.44,0,0,1,2,0,1.42,1.42,0,0,1-1,2.43,1.36,1.36,0,0,1-1-.41A1.39,1.39,0,0,1,141.67,16.38Z" style="fill: blue"/>
        <path d="M148.12,16.38a1.35,1.35,0,0,1,.42-1,1.42,1.42,0,0,1,2,2,1.36,1.36,0,0,1-1,.41,1.38,1.38,0,0,1-1-.41A1.43,1.43,0,0,1,148.12,16.38Z" style="fill: blue"/>
        <path d="M154.58,16.38a1.35,1.35,0,0,1,.42-1,1.42,1.42,0,0,1,2,2,1.42,1.42,0,0,1-2.42-1Z" style="fill: blue"/>
      </g>
    </g>
  </g>
</svg>
