<svg xmlns="http://www.w3.org/2000/svg" viewBox="0 0 229.81 11">
  <title>wiggle</title>
  <g id="Layer_2" data-name="Layer 2">
    <g id="Layer_1-2" data-name="Layer 1">
      <path d="M229.81,11c-5.73,0-8.72-2.29-11.35-4.31S213.64,3,208.92,3,202,4.71,199.38,6.69,193.75,11,188,11s-8.72-2.29-11.36-4.31S171.85,3,167.13,3s-7,1.71-9.54,3.69S152,11,146.23,11s-8.72-2.29-11.35-4.31S130.06,3,125.34,3s-7,1.71-9.53,3.69S110.18,11,104.45,11,95.73,8.71,93.09,6.69,88.28,3,83.56,3s-7,1.71-9.53,3.69S68.4,11,62.67,11,54,8.71,51.31,6.69,46.5,3,41.78,3s-7,1.71-9.53,3.69S26.62,11,20.89,11,12.17,8.71,9.53,6.69,4.71,3,0,3V0C5.73,0,8.71,2.29,11.35,4.31S16.17,8,20.89,8s7-1.71,9.53-3.69S36.05,0,41.78,0,50.5,2.29,53.14,4.31,58,8,62.67,8s7-1.71,9.53-3.69S77.83,0,83.56,0s8.72,2.29,11.36,4.31S99.73,8,104.45,8s7-1.71,9.53-3.69S119.61,0,125.34,0s8.72,2.29,11.36,4.31S141.52,8,146.23,8s6.94-1.71,9.53-3.69S161.4,0,167.13,0s8.72,2.29,11.36,4.31S183.3,8,188,8s6.95-1.71,9.54-3.69S203.19,0,208.92,0s8.72,2.29,11.36,4.31S225.1,8,229.81,8Z" style="fill: blue"/>
    </g>
  </g>
</svg>
